<mxfile host="Electron" agent="Mozilla/5.0 (Macintosh; Intel Mac OS X 10_15_7) AppleWebKit/537.36 (KHTML, like Gecko) draw.io/26.0.16 Chrome/132.0.6834.196 Electron/34.2.0 Safari/537.36" version="26.0.16">
  <diagram name="Page-1" id="vQatZXOMKg4p9L5wRt3j">
    <mxGraphModel dx="770" dy="566" grid="1" gridSize="10" guides="1" tooltips="1" connect="1" arrows="1" fold="1" page="1" pageScale="1" pageWidth="827" pageHeight="1169" math="0" shadow="0">
      <root>
        <mxCell id="0" />
        <mxCell id="1" parent="0" />
        <mxCell id="ziq-xVJrtoAaZMBWHtQo-3" value="&lt;font face=&quot;STIX&quot;&gt;Application&lt;/font&gt;&lt;div&gt;&lt;font face=&quot;STIX&quot;&gt;EEETWV&lt;/font&gt;&lt;/div&gt;" style="rounded=1;whiteSpace=wrap;html=1;" vertex="1" parent="1">
          <mxGeometry x="60" y="280" width="120" height="280" as="geometry" />
        </mxCell>
        <mxCell id="ziq-xVJrtoAaZMBWHtQo-4" value="&lt;font face=&quot;STIX&quot;&gt;Authorisation&lt;/font&gt;&lt;div&gt;&lt;font face=&quot;STIX&quot;&gt;Endpoint&lt;/font&gt;&lt;br&gt;&lt;div&gt;&lt;font face=&quot;STIX&quot;&gt;dmdata.jp&lt;/font&gt;&lt;/div&gt;&lt;/div&gt;" style="rounded=1;whiteSpace=wrap;html=1;" vertex="1" parent="1">
          <mxGeometry x="620" y="280" width="120" height="280" as="geometry" />
        </mxCell>
        <mxCell id="ziq-xVJrtoAaZMBWHtQo-5" value="&lt;font face=&quot;STIX&quot;&gt;User&lt;/font&gt;" style="rounded=1;whiteSpace=wrap;html=1;" vertex="1" parent="1">
          <mxGeometry x="384" y="340" width="30" height="20" as="geometry" />
        </mxCell>
        <mxCell id="ziq-xVJrtoAaZMBWHtQo-6" value="&lt;font face=&quot;STIX&quot;&gt;User&lt;/font&gt;&lt;div&gt;&lt;font face=&quot;STIX&quot;&gt;Browser&lt;/font&gt;&lt;/div&gt;" style="rounded=1;whiteSpace=wrap;html=1;" vertex="1" parent="1">
          <mxGeometry x="220" y="300" width="80" height="80" as="geometry" />
        </mxCell>
        <mxCell id="ziq-xVJrtoAaZMBWHtQo-10" value="" style="endArrow=classic;html=1;rounded=0;" edge="1" parent="1">
          <mxGeometry width="50" height="50" relative="1" as="geometry">
            <mxPoint x="200" y="320" as="sourcePoint" />
            <mxPoint x="600" y="320" as="targetPoint" />
          </mxGeometry>
        </mxCell>
        <mxCell id="ziq-xVJrtoAaZMBWHtQo-11" value="&lt;font face=&quot;STIX&quot;&gt;1. Request Authorisation Code&lt;/font&gt;" style="edgeLabel;html=1;align=left;verticalAlign=middle;resizable=0;points=[];" vertex="1" connectable="0" parent="ziq-xVJrtoAaZMBWHtQo-10">
          <mxGeometry x="0.5824" y="1" relative="1" as="geometry">
            <mxPoint x="-97" y="-9" as="offset" />
          </mxGeometry>
        </mxCell>
        <mxCell id="ziq-xVJrtoAaZMBWHtQo-12" value="" style="endArrow=classic;html=1;rounded=0;" edge="1" parent="1">
          <mxGeometry width="50" height="50" relative="1" as="geometry">
            <mxPoint x="600" y="360" as="sourcePoint" />
            <mxPoint x="200" y="360" as="targetPoint" />
          </mxGeometry>
        </mxCell>
        <mxCell id="ziq-xVJrtoAaZMBWHtQo-13" value="&lt;font face=&quot;STIX&quot;&gt;2. Grant Authorisation Code&lt;/font&gt;" style="edgeLabel;html=1;align=left;verticalAlign=middle;resizable=0;points=[];" vertex="1" connectable="0" parent="ziq-xVJrtoAaZMBWHtQo-12">
          <mxGeometry x="-0.4247" y="-2" relative="1" as="geometry">
            <mxPoint x="-65" y="-8" as="offset" />
          </mxGeometry>
        </mxCell>
        <mxCell id="ziq-xVJrtoAaZMBWHtQo-28" value="State" style="edgeLabel;html=1;align=center;verticalAlign=middle;resizable=0;points=[];fontFamily=STIX;" vertex="1" connectable="0" parent="ziq-xVJrtoAaZMBWHtQo-12">
          <mxGeometry x="-0.8532" y="-1" relative="1" as="geometry">
            <mxPoint x="-230" as="offset" />
          </mxGeometry>
        </mxCell>
        <mxCell id="ziq-xVJrtoAaZMBWHtQo-14" value="" style="endArrow=classic;html=1;rounded=0;" edge="1" parent="1">
          <mxGeometry width="50" height="50" relative="1" as="geometry">
            <mxPoint x="200" y="400" as="sourcePoint" />
            <mxPoint x="600" y="400" as="targetPoint" />
          </mxGeometry>
        </mxCell>
        <mxCell id="ziq-xVJrtoAaZMBWHtQo-15" value="&lt;font face=&quot;STIX&quot;&gt;3. Request Access &amp;amp; Refresh Token&lt;/font&gt;" style="edgeLabel;html=1;align=left;verticalAlign=middle;resizable=0;points=[];" vertex="1" connectable="0" parent="ziq-xVJrtoAaZMBWHtQo-14">
          <mxGeometry x="0.6111" y="2" relative="1" as="geometry">
            <mxPoint x="-102" y="-8" as="offset" />
          </mxGeometry>
        </mxCell>
        <mxCell id="ziq-xVJrtoAaZMBWHtQo-16" value="" style="endArrow=classic;html=1;rounded=0;" edge="1" parent="1">
          <mxGeometry width="50" height="50" relative="1" as="geometry">
            <mxPoint x="600" y="440" as="sourcePoint" />
            <mxPoint x="200" y="440" as="targetPoint" />
          </mxGeometry>
        </mxCell>
        <mxCell id="ziq-xVJrtoAaZMBWHtQo-17" value="&lt;font face=&quot;STIX&quot;&gt;4. Grant Access &amp;amp; Refresh Token&lt;/font&gt;" style="edgeLabel;html=1;align=left;verticalAlign=middle;resizable=0;points=[];" vertex="1" connectable="0" parent="1">
          <mxGeometry x="419.99741935483877" y="430" as="geometry" />
        </mxCell>
        <mxCell id="ziq-xVJrtoAaZMBWHtQo-18" value="" style="endArrow=classic;html=1;rounded=0;" edge="1" parent="1">
          <mxGeometry width="50" height="50" relative="1" as="geometry">
            <mxPoint x="200" y="480" as="sourcePoint" />
            <mxPoint x="600" y="480" as="targetPoint" />
          </mxGeometry>
        </mxCell>
        <mxCell id="ziq-xVJrtoAaZMBWHtQo-20" value="5. Request Access Token" style="edgeLabel;html=1;align=left;verticalAlign=middle;resizable=0;points=[];fontFamily=STIX;" vertex="1" connectable="0" parent="ziq-xVJrtoAaZMBWHtQo-18">
          <mxGeometry x="0.5984" y="-2" relative="1" as="geometry">
            <mxPoint x="-100" y="-12" as="offset" />
          </mxGeometry>
        </mxCell>
        <mxCell id="ziq-xVJrtoAaZMBWHtQo-23" value="Client ID&lt;div&gt;Refresh Token&lt;/div&gt;" style="edgeLabel;html=1;align=center;verticalAlign=middle;resizable=0;points=[];fontFamily=STIX;" vertex="1" connectable="0" parent="ziq-xVJrtoAaZMBWHtQo-18">
          <mxGeometry x="-0.4274" y="-2" relative="1" as="geometry">
            <mxPoint x="25" as="offset" />
          </mxGeometry>
        </mxCell>
        <mxCell id="ziq-xVJrtoAaZMBWHtQo-19" value="" style="endArrow=classic;html=1;rounded=0;" edge="1" parent="1">
          <mxGeometry width="50" height="50" relative="1" as="geometry">
            <mxPoint x="600" y="520" as="sourcePoint" />
            <mxPoint x="200" y="520" as="targetPoint" />
          </mxGeometry>
        </mxCell>
        <mxCell id="ziq-xVJrtoAaZMBWHtQo-22" value="6. Grant Access Token" style="edgeLabel;html=1;align=left;verticalAlign=middle;resizable=0;points=[];fontFamily=STIX;" vertex="1" connectable="0" parent="1">
          <mxGeometry x="420" y="510" as="geometry" />
        </mxCell>
        <mxCell id="ziq-xVJrtoAaZMBWHtQo-25" value="Client ID&lt;div&gt;Auth. Code&lt;/div&gt;&lt;div&gt;Code Verifier&lt;/div&gt;&lt;div&gt;Redirect URI&lt;/div&gt;" style="edgeLabel;html=1;align=center;verticalAlign=middle;resizable=0;points=[];fontFamily=STIX;" vertex="1" connectable="0" parent="1">
          <mxGeometry x="339.9987096774193" y="399.9999999999998" as="geometry" />
        </mxCell>
        <mxCell id="ziq-xVJrtoAaZMBWHtQo-26" value="Client ID&lt;div&gt;Scopes&lt;/div&gt;&lt;div&gt;Code Challenge&lt;/div&gt;&lt;div&gt;State&lt;/div&gt;&lt;div&gt;Redirect URI&lt;/div&gt;" style="edgeLabel;html=1;align=center;verticalAlign=middle;resizable=0;points=[];fontFamily=STIX;" vertex="1" connectable="0" parent="1">
          <mxGeometry x="339.9987096774193" y="309.9999999999998" as="geometry" />
        </mxCell>
      </root>
    </mxGraphModel>
  </diagram>
</mxfile>
